<svg width="40.000000" height="39.919678" viewBox="0 0 40 39.9197" fill="none" xmlns="http://www.w3.org/2000/svg" xmlns:xlink="http://www.w3.org/1999/xlink">
	<desc>
			Created with Pixso.
	</desc>
	<defs/>
	<rect id="Rectangle 7716" x="3.146210" y="18.470215" width="29.022209" height="1.353453" fill="#F8C301" fill-opacity="1.000000"/>
	<path id="Ellipse 52" d="M17.65 33.62C22.52 33.62 26.47 27.19 26.47 19.28C26.47 11.36 22.52 4.93 17.65 4.93C12.79 4.93 8.84 11.36 8.84 19.28C8.84 27.19 12.79 33.62 17.65 33.62ZM23.67 11.06C24.81 13.29 25.51 16.15 25.51 19.28C25.51 22.18 24.9 25.1 23.67 27.49C22.52 29.72 20.91 31.32 19.02 31.86C17.26 32.37 15.39 31.91 13.73 30.34C12.18 28.89 10.93 26.59 10.27 23.65C9.66 20.92 9.62 17.84 10.27 14.91C10.88 12.18 12.06 9.77 13.73 8.21C15.27 6.76 17.12 6.15 19.02 6.69C20.77 7.2 22.43 8.67 23.67 11.06Z" fill="#F8C301" fill-opacity="1.000000" fill-rule="evenodd"/>
	<path id="Ellipse 51" d="M17.65 33.62C25.66 33.62 32.16 27.19 32.16 19.28C32.16 11.36 25.66 4.93 17.65 4.93C9.65 4.93 3.14 11.36 3.14 19.28C3.14 27.19 9.65 33.62 17.65 33.62ZM27.79 10.87C29.72 13.14 30.89 16.08 30.89 19.28C30.89 22.25 29.87 25.24 27.79 27.69C25.86 29.97 23.14 31.61 19.95 32.16C16.99 32.68 13.84 32.21 11.04 30.61C8.43 29.12 6.32 26.76 5.22 23.75C4.19 20.96 4.11 17.81 5.22 14.8C6.24 12.01 8.23 9.54 11.04 7.95C13.64 6.46 16.76 5.83 19.95 6.39C22.91 6.91 25.71 8.41 27.79 10.87Z" fill="#F8C301" fill-opacity="1.000000" fill-rule="evenodd"/>
	<rect id="Rectangle 7717" x="16.979248" y="4.935791" width="1.356178" height="28.693211" fill="#F8C301" fill-opacity="1.000000"/>
	<path id="Ellipse 53" d="M23.97 6.73C22.22 6.11 19.97 5.74 17.52 5.74C15.24 5.74 12.95 6.06 11.07 6.73C9.32 7.34 8.06 8.2 7.64 9.21C7.24 10.15 7.6 11.15 8.83 12.04C9.97 12.86 11.78 13.53 14.09 13.88C16.23 14.21 18.64 14.23 20.95 13.88C23.09 13.56 24.98 12.92 26.21 12.04C27.35 11.21 27.83 10.22 27.4 9.21C27 8.27 25.85 7.38 23.97 6.73ZM12.36 7.37C13.76 6.88 15.55 6.58 17.52 6.58C19.34 6.58 21.17 6.84 22.67 7.37C24.07 7.86 25.08 8.55 25.42 9.36C25.73 10.11 25.45 10.91 24.46 11.62C23.55 12.28 22.11 12.81 20.26 13.09C18.55 13.35 16.62 13.37 14.77 13.09C13.06 12.83 11.55 12.33 10.57 11.62C9.66 10.96 9.27 10.16 9.62 9.36C9.93 8.61 10.86 7.9 12.36 7.37Z" fill="#F8C301" fill-opacity="1.000000" fill-rule="evenodd"/>
	<path id="Ellipse 54" d="M27.37 27.51C26.95 26.52 25.77 25.58 23.87 24.89C22.1 24.25 19.84 23.87 17.39 23.88C15.11 23.89 12.83 24.25 10.97 24.96C9.24 25.62 8.01 26.55 7.61 27.63C7.25 28.63 7.64 29.69 8.89 30.63C10.06 31.5 11.89 32.2 14.21 32.56C16.36 32.9 18.78 32.91 21.07 32.52C23.2 32.16 25.07 31.48 26.27 30.53C27.39 29.64 27.83 28.59 27.37 27.51ZM17.4 24.46C19.39 24.44 21.39 24.73 23.05 25.33C24.59 25.89 25.71 26.69 26.1 27.62C26.48 28.49 26.19 29.42 25.14 30.25C24.17 31.02 22.61 31.65 20.61 31.98C18.76 32.3 16.65 32.33 14.63 32.02C12.76 31.73 11.1 31.15 10 30.33C8.99 29.57 8.54 28.66 8.89 27.72C9.21 26.85 10.19 26.02 11.81 25.4C13.32 24.82 15.27 24.47 17.4 24.46Z" fill="#F8C301" fill-opacity="1.000000" fill-rule="evenodd"/>
	<path id="Vector 67" d="M29.91 32.25L22.93 18.96C22.84 18.79 23.01 18.59 23.2 18.66L37.53 23.84C37.7 23.91 37.72 24.16 37.55 24.24L33.53 26.31C33.4 26.38 33.37 26.56 33.49 26.66L37.84 30.51C37.92 30.58 37.93 30.72 37.86 30.81L36.78 32.1C36.7 32.19 36.56 32.2 36.47 32.12L32.13 28.28C32.01 28.18 31.83 28.23 31.78 28.37L30.3 32.23C30.23 32.4 29.99 32.42 29.91 32.25Z" fill="#60C1F8" fill-opacity="1.000000" fill-rule="nonzero"/>
	<path id="Vector 67" d="M29.91 32.25C29.99 32.42 30.23 32.4 30.3 32.23L31.78 28.37C31.83 28.23 32.01 28.18 32.13 28.28L36.47 32.12C36.56 32.2 36.7 32.19 36.78 32.1L37.86 30.81C37.93 30.72 37.92 30.58 37.84 30.51L33.49 26.66C33.37 26.56 33.4 26.38 33.53 26.31L37.55 24.24C37.72 24.16 37.7 23.91 37.53 23.84L23.2 18.66C23.01 18.59 22.84 18.79 22.93 18.96L29.91 32.25Z" stroke="#FFFFFF" stroke-opacity="1.000000" stroke-width="0.542471"/>
</svg>
