<svg width="10.799988" height="10.799805" viewBox="0 0 10.8 10.7998" fill="none" xmlns="http://www.w3.org/2000/svg" xmlns:xlink="http://www.w3.org/1999/xlink">
	<desc>
			Created with Pixso.
	</desc>
	<defs/>
	<path id="Vector" d="M7.87 0L2.92 0C1.31 0 0 1.31 0 2.92L0 7.87C0 9.48 1.31 10.79 2.92 10.79L7.87 10.79C9.48 10.79 10.8 9.48 10.8 7.87L10.8 2.92C10.8 1.31 9.48 0 7.87 0L7.87 0ZM5.4 8.35C3.77 8.35 2.44 7.02 2.44 5.39C2.44 3.77 3.77 2.44 5.4 2.44C7.02 2.44 8.35 3.77 8.35 5.39C8.35 7.02 7.02 8.35 5.4 8.35ZM8.42 3.14C7.94 3.14 7.55 2.75 7.55 2.27C7.55 1.78 7.94 1.39 8.42 1.39C8.9 1.39 9.29 1.78 9.29 2.27C9.29 2.75 8.9 3.14 8.42 3.14Z" fill="#373F41" fill-opacity="1.000000" fill-rule="nonzero"/>
	<path id="Vector" d="M5.39 3.08C4.11 3.08 3.07 4.12 3.07 5.39C3.07 6.67 4.11 7.71 5.39 7.71C6.67 7.71 7.71 6.67 7.71 5.39C7.71 4.12 6.67 3.08 5.39 3.08Z" fill="#373F41" fill-opacity="1.000000" fill-rule="nonzero"/>
	<path id="Vector" d="M8.42 2.03C8.29 2.03 8.18 2.13 8.18 2.26C8.18 2.4 8.29 2.5 8.42 2.5C8.55 2.5 8.66 2.4 8.66 2.26C8.66 2.13 8.55 2.03 8.42 2.03Z" fill="#373F41" fill-opacity="1.000000" fill-rule="nonzero"/>
</svg>
