<svg width="21.239990" height="19.281250" viewBox="0 0 21.24 19.2812" fill="none" xmlns="http://www.w3.org/2000/svg" xmlns:xlink="http://www.w3.org/1999/xlink">
	<desc>
			Created with Pixso.
	</desc>
	<defs/>
	<rect id="Rectangle 7659" x="1.000000" y="1.000000" rx="3.600000" width="19.240000" height="17.281185" stroke="#60C1F8" stroke-opacity="1.000000" stroke-width="2.000000"/>
	<path id="Vector 22" d="M8.55 5.86L9.57 8.1L9.01 8.35L8.59 7.91L13.07 3.64L13.92 4.53L9.43 8.8Q9.36 8.87 9.27 8.91Q9.21 8.94 9.15 8.95Q9.09 8.96 9.03 8.96Q8.97 8.97 8.92 8.96Q8.86 8.95 8.8 8.93Q8.74 8.91 8.69 8.87Q8.64 8.84 8.6 8.8Q8.55 8.76 8.52 8.71Q8.48 8.66 8.46 8.61L7.44 6.37L8.55 5.86ZM7.47 6.38L7.44 6.37C7.3 6.06 7.43 5.7 7.74 5.56C8.05 5.42 8.41 5.55 8.55 5.86L8.54 5.89L7.47 6.38ZM13.07 3.67L13.07 3.64C13.32 3.41 13.7 3.42 13.94 3.66C14.17 3.91 14.16 4.29 13.92 4.53L13.89 4.53L13.07 3.67Z" fill="#F8C301" fill-opacity="1.000000" fill-rule="evenodd"/>
	<rect id="Rectangle 7662" x="4.000000" y="12.295410" rx="0.498995" width="0.997991" height="13.000000" transform="rotate(-90 4.000000 12.295410)" fill="#F8C301" fill-opacity="1.000000"/>
	<rect id="Rectangle 7663" x="4.000000" y="15.289307" rx="0.498995" width="0.997991" height="13.000000" transform="rotate(-90 4.000000 15.289307)" fill="#F8C301" fill-opacity="1.000000"/>
</svg>
