<svg width="11.131714" height="9.303223" viewBox="0 0 11.1317 9.30322" fill="none" xmlns="http://www.w3.org/2000/svg" xmlns:xlink="http://www.w3.org/1999/xlink">
	<desc>
			Created with Pixso.
	</desc>
	<defs/>
	<path id="Icon Twitter" d="M0.68 0.42C0.68 0.42 2.33 2.76 5.37 2.81C5.37 2.81 5.11 0.78 6.86 0.16C6.86 0.16 8.34 -0.46 9.33 0.71C9.33 0.71 10.49 0.52 10.75 0.16C10.75 0.16 10.68 0.88 9.88 1.4C9.88 1.4 10.61 1.4 11.13 1.11C11.13 1.11 10.4 2.04 10.08 2.18C10.08 2.18 10.07 2.19 10.07 2.19C9.76 2.31 10.4 4.38 8.49 6.84C8.49 6.84 7.04 8.82 4.33 9.2C3.23 9.36 1.62 9.49 0 8.25C0 8.25 1.65 8.46 3.3 7.22C3.3 7.22 1.6 7.08 1.2 5.65C1.2 5.65 1.98 5.65 2.14 5.62C2.14 5.62 0.33 5 0.35 3.25C0.35 3.25 0.96 3.52 1.3 3.49C1.3 3.49 -0.23 2.33 0.68 0.42Z" fill="#373F41" fill-opacity="1.000000" fill-rule="evenodd"/>
</svg>
